<svg width="32" height="32" viewBox="0 0 32 32" fill="none" xmlns="http://www.w3.org/2000/svg">
<path d="M8 8C9.52047 6.47953 10.2807 5.7193 11.0415 5.21701C14.0491 3.23156 17.9509 3.23156 20.9585 5.21701C21.7193 5.7193 22.4795 6.47953 24 8C25.5205 9.52047 26.2807 10.2807 26.783 11.0415C28.7684 14.0491 28.7684 17.9509 26.783 20.9585C26.2807 21.7193 25.5205 22.4795 24 24C22.4795 25.5205 21.7193 26.2807 20.9585 26.783C17.9509 28.7684 14.0491 28.7684 11.0415 26.783C10.2807 26.2807 9.52047 25.5205 8 24C6.47953 22.4795 5.7193 21.7193 5.21701 20.9585C3.23156 17.9509 3.23156 14.0491 5.21701 11.0415C5.7193 10.2807 6.47953 9.52047 8 8Z" fill="url(#paint0_linear_388_4772)"/>
<path d="M11.3174 5.63477C14.1578 3.75964 17.8422 3.75964 20.6826 5.63477C21.3905 6.10211 22.1086 6.81561 23.6465 8.35352C25.1844 9.89142 25.8979 10.6095 26.3652 11.3174C28.2404 14.1578 28.2404 17.8422 26.3652 20.6826C25.8979 21.3905 25.1844 22.1086 23.6465 23.6465C22.1086 25.1844 21.3905 25.8979 20.6826 26.3652C17.8422 28.2404 14.1578 28.2404 11.3174 26.3652C10.6095 25.8979 9.89142 25.1844 8.35352 23.6465C6.81561 22.1086 6.10211 21.3905 5.63477 20.6826C3.75964 17.8422 3.75964 14.1578 5.63477 11.3174C6.10211 10.6095 6.81561 9.89142 8.35352 8.35352C9.89142 6.81561 10.6095 6.10211 11.3174 5.63477Z" stroke="white" stroke-opacity="0.1"/>
<path d="M16 10V22" stroke="white" stroke-width="1.5" stroke-linecap="round" stroke-linejoin="round"/>
<path d="M12 14L16 10L20 14" stroke="white" stroke-width="1.5" stroke-linecap="round" stroke-linejoin="round"/>
<defs>
<linearGradient id="paint0_linear_388_4772" x1="16" y1="0" x2="16" y2="32" gradientUnits="userSpaceOnUse">
<stop stop-color="white" stop-opacity="0.02"/>
<stop offset="1" stop-color="white" stop-opacity="0.1"/>
</linearGradient>
</defs>
</svg>
