<svg width="32" height="32" viewBox="0 0 32 32" fill="none" xmlns="http://www.w3.org/2000/svg">
<path d="M8 8C9.52047 6.47953 10.2807 5.7193 11.0415 5.21701C14.0491 3.23156 17.9509 3.23156 20.9585 5.21701C21.7193 5.7193 22.4795 6.47953 24 8C25.5205 9.52047 26.2807 10.2807 26.783 11.0415C28.7684 14.0491 28.7684 17.9509 26.783 20.9585C26.2807 21.7193 25.5205 22.4795 24 24C22.4795 25.5205 21.7193 26.2807 20.9585 26.783C17.9509 28.7684 14.0491 28.7684 11.0415 26.783C10.2807 26.2807 9.52047 25.5205 8 24C6.47953 22.4795 5.7193 21.7193 5.21701 20.9585C3.23156 17.9509 3.23156 14.0491 5.21701 11.0415C5.7193 10.2807 6.47953 9.52047 8 8Z" fill="url(#paint0_linear_388_4701)"/>
<path d="M11.3174 5.63477C14.1578 3.75964 17.8422 3.75964 20.6826 5.63477C21.3905 6.10211 22.1086 6.81561 23.6465 8.35352C25.1844 9.89142 25.8979 10.6095 26.3652 11.3174C28.2404 14.1578 28.2404 17.8422 26.3652 20.6826C25.8979 21.3905 25.1844 22.1086 23.6465 23.6465C22.1086 25.1844 21.3905 25.8979 20.6826 26.3652C17.8422 28.2404 14.1578 28.2404 11.3174 26.3652C10.6095 25.8979 9.89142 25.1844 8.35352 23.6465C6.81561 22.1086 6.10211 21.3905 5.63477 20.6826C3.75964 17.8422 3.75964 14.1578 5.63477 11.3174C6.10211 10.6095 6.81561 9.89142 8.35352 8.35352C9.89142 6.81561 10.6095 6.10211 11.3174 5.63477Z" stroke="white" stroke-opacity="0.1"/>
<g clip-path="url(#clip0_388_4701)">
<path d="M16 19.3333V13.3333" stroke="white" stroke-width="1.5" stroke-linecap="round" stroke-linejoin="round"/>
<path d="M14.5864 12.7467L11.6064 15.7267" stroke="white" stroke-width="1.5" stroke-linecap="round" stroke-linejoin="round"/>
<path d="M17.4136 12.7467L20.3936 15.7267" stroke="white" stroke-width="1.5" stroke-linecap="round" stroke-linejoin="round"/>
<path d="M10.6668 18C11.4032 18 12.0002 17.4031 12.0002 16.6667C12.0002 15.9303 11.4032 15.3333 10.6668 15.3333C9.93045 15.3333 9.3335 15.9303 9.3335 16.6667C9.3335 17.4031 9.93045 18 10.6668 18Z" stroke="white" stroke-width="1.5" stroke-linecap="round" stroke-linejoin="round"/>
<path d="M16 13.3333C17.1046 13.3333 18 12.4379 18 11.3333C18 10.2288 17.1046 9.33334 16 9.33334C14.8954 9.33334 14 10.2288 14 11.3333C14 12.4379 14.8954 13.3333 16 13.3333Z" stroke="white" stroke-width="1.5" stroke-linecap="round" stroke-linejoin="round"/>
<path d="M16.0002 22.6667C16.9206 22.6667 17.6668 21.9205 17.6668 21C17.6668 20.0795 16.9206 19.3333 16.0002 19.3333C15.0797 19.3333 14.3335 20.0795 14.3335 21C14.3335 21.9205 15.0797 22.6667 16.0002 22.6667Z" stroke="white" stroke-width="1.5" stroke-linecap="round" stroke-linejoin="round"/>
<path d="M21.3333 18C22.0697 18 22.6667 17.4031 22.6667 16.6667C22.6667 15.9303 22.0697 15.3333 21.3333 15.3333C20.597 15.3333 20 15.9303 20 16.6667C20 17.4031 20.597 18 21.3333 18Z" stroke="white" stroke-width="1.5" stroke-linecap="round" stroke-linejoin="round"/>
</g>
<defs>
<linearGradient id="paint0_linear_388_4701" x1="16" y1="0" x2="16" y2="32" gradientUnits="userSpaceOnUse">
<stop stop-color="white" stop-opacity="0.02"/>
<stop offset="1" stop-color="white" stop-opacity="0.1"/>
</linearGradient>
<clipPath id="clip0_388_4701">
<rect width="16" height="16" fill="white" transform="translate(8 8)"/>
</clipPath>
</defs>
</svg>
