<svg width="16" height="16" viewBox="0 0 16 16" fill="none" xmlns="http://www.w3.org/2000/svg">
<path d="M11.7599 9.98001C11.1399 9.86001 10.6666 9.32001 10.6666 8.66668C10.6666 8.57334 10.6799 8.47334 10.6999 8.38668C9.99323 7.73334 9.04656 7.33334 7.9999 7.33334C6.95323 7.33334 6.00656 7.73334 5.2999 8.38668C5.3199 8.47334 5.33323 8.57334 5.33323 8.66668C5.33323 9.32001 4.8599 9.86001 4.2399 9.98001C4.23323 9.99334 4.22656 10 4.22656 10.0133C5.59323 10.1267 6.66656 11.2667 6.66656 12.6667H9.33323C9.33323 11.2667 10.4066 10.1267 11.7732 10.0133C11.7732 10 11.7666 9.99334 11.7599 9.98001Z" stroke="black" stroke-width="1.5" stroke-miterlimit="10" stroke-linecap="round" stroke-linejoin="round"/>
<path d="M8 7.33334C9.10457 7.33334 10 6.43791 10 5.33334C10 4.22877 9.10457 3.33334 8 3.33334C6.89543 3.33334 6 4.22877 6 5.33334C6 6.43791 6.89543 7.33334 8 7.33334Z" stroke="black" stroke-width="1.5" stroke-miterlimit="10" stroke-linecap="round" stroke-linejoin="round"/>
<path d="M12.0002 10C10.5268 10 9.3335 11.1933 9.3335 12.6667C9.34016 12.6667 14.6668 12.6667 14.6668 12.6667C14.6668 11.1933 13.4735 10 12.0002 10Z" stroke="black" stroke-width="1.5" stroke-miterlimit="10" stroke-linecap="round" stroke-linejoin="round"/>
<path d="M11.9998 10C12.7362 10 13.3332 9.40306 13.3332 8.66668C13.3332 7.9303 12.7362 7.33334 11.9998 7.33334C11.2635 7.33334 10.6665 7.9303 10.6665 8.66668C10.6665 9.40306 11.2635 10 11.9998 10Z" stroke="black" stroke-width="1.5" stroke-miterlimit="10" stroke-linecap="round" stroke-linejoin="round"/>
<path d="M4.00016 10C2.52683 10 1.3335 11.1933 1.3335 12.6667C1.34016 12.6667 6.66683 12.6667 6.66683 12.6667C6.66683 11.1933 5.4735 10 4.00016 10Z" stroke="black" stroke-width="1.5" stroke-miterlimit="10" stroke-linecap="round" stroke-linejoin="round"/>
<path d="M3.99984 10C4.73622 10 5.33317 9.40306 5.33317 8.66668C5.33317 7.9303 4.73622 7.33334 3.99984 7.33334C3.26346 7.33334 2.6665 7.9303 2.6665 8.66668C2.6665 9.40306 3.26346 10 3.99984 10Z" stroke="black" stroke-width="1.5" stroke-miterlimit="10" stroke-linecap="round" stroke-linejoin="round"/>
</svg>
