<svg width="16" height="16" viewBox="0 0 16 16" fill="none" xmlns="http://www.w3.org/2000/svg">
<path d="M11.3332 10C13.1732 10 14.6665 11.4933 14.6665 13.3333C14.6598 13.3333 7.99984 13.3333 7.99984 13.3333C7.99984 11.4933 9.49317 10 11.3332 10Z" stroke="white" stroke-width="1.5" stroke-miterlimit="10" stroke-linecap="round" stroke-linejoin="round"/>
<path d="M11.3333 9.99999C10.4129 9.99999 9.66667 9.2538 9.66667 8.33332C9.66667 7.41285 10.4129 6.66666 11.3333 6.66666C12.2538 6.66666 13 7.41285 13 8.33332C13 9.2538 12.2538 9.99999 11.3333 9.99999Z" stroke="white" stroke-width="1.5" stroke-miterlimit="10" stroke-linecap="round" stroke-linejoin="round"/>
<path d="M4.66667 6C6.50667 6 8 7.49333 8 9.33333C7.99333 9.33333 1.33333 9.33333 1.33333 9.33333C1.33333 7.49333 2.82667 6 4.66667 6Z" stroke="white" stroke-width="1.5" stroke-miterlimit="10" stroke-linecap="round" stroke-linejoin="round"/>
<path d="M4.66683 5.99999C3.74635 5.99999 3.00016 5.2538 3.00016 4.33332C3.00016 3.41285 3.74635 2.66666 4.66683 2.66666C5.5873 2.66666 6.3335 3.41285 6.3335 4.33332C6.3335 5.2538 5.5873 5.99999 4.66683 5.99999Z" stroke="white" stroke-width="1.5" stroke-miterlimit="10" stroke-linecap="round" stroke-linejoin="round"/>
</svg>
